<svg id="Capa_1" data-name="Capa 1" xmlns="http://www.w3.org/2000/svg" viewBox="0 0 296.64 46.6"><defs><style>.cls-1{fill:#ffffff;}</style></defs><title>logo</title><path class="cls-1" d="M174.2,449.5c0,0.8-.3,1.1-0.9,1.1h-2.4a0.93,0.93,0,0,1-1-1.1c-0.4-12.5-.9-25.8-1.6-37h-0.4c-3.1,8.9-6.9,20.2-10.1,27.9-0.8,1.8-1.6,2.2-3.1,2.2H153c-1.5,0-2.2-.4-3-2.2-3.2-7.7-7-19-10.1-27.9h-0.4c-0.8,11.3-1.2,24.5-1.6,37a0.93,0.93,0,0,1-1,1.1h-2.4c-0.6,0-.9-0.3-0.9-1.1,0.5-12.7,1.1-27.2,2.2-39.6,0.1-1.4.6-1.9,2.2-1.9h2.5c1.7,0,2.1.1,2.8,2,3.2,8.7,7.1,20.1,10.4,28.6H154c3.3-8.5,7.4-19.9,10.4-28.6,0.7-1.9,1.1-2,2.8-2h2.5c1.6,0,2.1.5,2.2,1.9C172.9,422.2,173.7,436.8,174.2,449.5Z" transform="translate(-133.6 -404)"/><path class="cls-1" d="M199.4,444.3h-0.1c-1.4,2.2-3.5,3.4-6.8,3.4h-3.2c-2.7,0-5.4-.8-6.8-2.3a8.14,8.14,0,0,1-2.3-6v-1.9c0-3.9,1.7-6.8,5-8,1.4-.6,3.6-0.9,7.6-0.9h1.9c1.4,0,3,.1,4.3.2v-3.6c0-4.9-2.7-6.2-7.7-6.2a21.59,21.59,0,0,0-6.6,1c-1,.3-1.5.3-1.7-0.5l-0.3-1.3a1,1,0,0,1,.7-1.5,33,33,0,0,1,8.2-1.2c8.2,0,11.5,2.7,11.5,9.4v21.8a0.82,0.82,0,0,1-.7,1h-2.1c-0.6,0-.8-0.2-0.8-0.6ZM199,432.2c-1-.1-2.4-0.2-3.8-0.2h-3.6c-2.8,0-4.5.4-5.6,1.3s-1.6,2.2-1.6,4.2v1.3c0,2,.4,3.3,1.3,4.1s2.1,1.1,3.9,1.1h2.6c4.2,0,6.8-2.2,6.8-6.6v-5.2h0Z" transform="translate(-133.6 -404)"/><path class="cls-1" d="M222.6,447.6c-3.3,0-5.7-.8-7.1-2.5s-2.1-4.1-2.1-7.3V419.5h-3.9c-0.4,0-.6-0.1-0.6-0.7v-1.3c0-.6.2-0.8,0.6-0.8l3.9-.8v-7.2a0.79,0.79,0,0,1,.8-0.8h2.7a0.71,0.71,0,0,1,.7.8v7.2h7.5a0.53,0.53,0,0,1,.6.6v2.4a0.53,0.53,0,0,1-.6.6h-7.5v17.8c0,2.3.2,4.1,1.1,5.2s2.3,1.6,4.6,1.6h1.4c0.4,0,.8-0.6.8,0.1v2.2c0,0.4-.2,1.3-0.8,1.3h-2.1v-0.1h0Z" transform="translate(-133.6 -404)"/><path class="cls-1" d="M235.6,419.5h0.1c1.5-1.8,4.3-3.1,8-3.1,8.5,0,12.4,4.6,12.4,14.8v2.9c0,11.2-4.6,14.7-12.7,14.7-4.6,0-7.8-1.2-9.6-3.3-1.6-1.9-2.4-4.3-2.4-7.8V405.9a0.67,0.67,0,0,1,.8-0.7h2.6a0.71,0.71,0,0,1,.8.7v13.6h0Zm14.5,23.2c1.3-1.8,1.8-4.4,1.8-9.1v-2.2c0-4.8-.8-7.8-2.5-9.5-1.4-1.4-3.2-2-6.1-2s-4.8.8-6,1.9c-1.4,1.4-1.7,3-1.7,6.6v8.7c0,2.8.4,4.3,1.3,5.6,1.3,1.8,3.5,2.4,6.6,2.4S248.8,444.5,250.1,442.7Z" transform="translate(-133.6 -404)"/><path class="cls-1" d="M351.9,432.7c0,5.7-1,9.6-3.3,11.9q-3.15,3-9,3c-3.8,0-6.8-1-8.9-3-2.4-2.4-3.3-6.2-3.3-11.9v-2.5c0-5.7,1-9.6,3.3-12,2.1-2,5.3-2.9,8.9-2.9,3.8,0,6.9.9,9,2.9,2.4,2.4,3.3,6.3,3.3,12v2.5Zm-20.4-.7a33.73,33.73,0,0,0,.6,7c1.1,3.8,3.6,5,7.4,5s6.4-1.3,7.5-5a33.73,33.73,0,0,0,.6-7v-1.2a33.73,33.73,0,0,0-.6-7c-1.1-3.8-3.6-5-7.5-5s-6.3,1.2-7.4,5a33.73,33.73,0,0,0-.6,7V432Z" transform="translate(-133.6 -404)"/><path class="cls-1" d="M362.4,447.4a0.79,0.79,0,0,1-.8-0.8V419.5h-3.9c-0.4,0-.6-0.1-0.6-0.7v-1.3c0-.6.2-0.8,0.6-0.8l3.9-.8v-1.4a13,13,0,0,1,1.3-6.4c2-3.3,5.9-4.1,8.5-4.1a18.39,18.39,0,0,1,5.1.6,0.89,0.89,0,0,1,.8,1l-0.3,1.8c-0.1.6-.4,0.8-1.1,0.6a20.15,20.15,0,0,0-3.8-.4,7.72,7.72,0,0,0-4.5,1.2c-1.4,1.1-1.9,2.9-1.9,5.8V416h6.8a0.53,0.53,0,0,1,.6.6V419a0.53,0.53,0,0,1-.6.6h-6.8v27.1a0.77,0.77,0,0,1-.7.8h-2.6v-0.1Z" transform="translate(-133.6 -404)"/><path class="cls-1" d="M399.6,431.4c0,1.8-.6,2.4-2.4,2.4H380.8c0.3,7.6,2.4,10.3,8.3,10.3a18.15,18.15,0,0,0,7-1.3c0.8-.3,1.3-0.2,1.5.4l0.4,1.5c0.2,0.6.3,1.1-1.4,1.7a22,22,0,0,1-7.6,1.2c-9.4,0-12.5-4.6-12.5-14.9v-2.5c0-10,3.1-14.9,12-14.9,3.7,0,6.4.9,8.2,2.6s2.8,4.3,2.8,8.3v5.2h0.1Zm-18.7-1.2h13.7c0.6,0,.9-0.1.9-1v-2.4c0-3.1-.4-4.6-1.5-5.9s-2.8-2-5.3-2C383.3,418.8,380.9,421.3,380.9,430.2Z" transform="translate(-133.6 -404)"/><path class="cls-1" d="M418.2,429.1c0.9,0,.9-0.5,1.2-1l5.8-11.9a1.31,1.31,0,0,1,1.2-.7H429c0.5,0,.9.3,0.5,1l-7.1,14a1,1,0,0,0,0,1.3l7.7,15.1c0.3,0.5.1,0.7-.5,0.7h-3.4a0.75,0.75,0,0,1-.8-0.5l-6.2-13.2a1.38,1.38,0,0,0-1.4-1h-1a1.2,1.2,0,0,0-1.3,1l-6.1,13.2a0.89,0.89,0,0,1-.8.5h-3.4c-0.5,0-.7-0.3-0.5-0.7l7.6-15.1a1.05,1.05,0,0,0,0-1.3l-6.9-14c-0.4-.7-0.1-1,0.5-1h2.6a1.21,1.21,0,0,1,1.2.7l5.8,11.9c0.4,0.7.4,1,1.1,1h1.6Z" transform="translate(-133.6 -404)"/><path class="cls-1" d="M325.5,449.6l-11.3-18.3c5.1-1.3,7.9-5.2,7.9-10.7v-1.3c0-7.8-5.2-11.3-14.7-11.3a51.8,51.8,0,0,0-8.7.7,1.11,1.11,0,0,0-1.1,1.3v18.8H294a0.33,0.33,0,0,0-.4.4v2.4a0.46,0.46,0,0,0,.4.5h3.6v17.3a1,1,0,0,0,1.1,1.1H301a0.93,0.93,0,0,0,1-1.1V432.1h8L320.8,450a1.15,1.15,0,0,0,1.1.6h3.3C325.8,450.6,325.9,450.2,325.5,449.6Zm-17.3-20.9c-2.4,0-4.6-.1-6.3-0.1V412.9c0-.8.1-1,1-1.1a28.58,28.58,0,0,1,4.6-.3c7.1,0,10,2,10,7.9v0.8C317.4,426.2,314.6,428.7,308.2,428.7Z" transform="translate(-133.6 -404)"/><path class="cls-1" d="M287.4,428.8H284v-4.1c0-6.6-3.4-9.4-11.5-9.4a33,33,0,0,0-8.2,1.2,1,1,0,0,0-.7,1.5l0.3,1.3c0.2,0.8.7,0.8,1.7,0.5a25.15,25.15,0,0,1,6.6-1c5,0,7.7,1.3,7.7,6.2v3.6c-1.3-.1-2.9-0.2-4.3-0.2h-1.9c-4,0-6.2.3-7.6,0.9-3.2,1.3-5,4.1-5,8v1.9a8.14,8.14,0,0,0,2.3,6c1.5,1.5,4.1,2.3,6.8,2.3h3.2c3.2,0,5.4-1.1,6.8-3.4h0.1l0.1,2.5a0.65,0.65,0,0,0,.8.6h2.1c0.6,0,.7-0.2.7-0.6V431.9h3.4a0.53,0.53,0,0,0,.6-0.6v-2.1A0.49,0.49,0,0,0,287.4,428.8Zm-7.6,3.6v5.1c0,4.4-2.5,6.6-6.8,6.6h-2.6a5.86,5.86,0,0,1-3.9-1.1c-0.9-.8-1.3-2.1-1.3-4.1v-1.3c0-2,.5-3.4,1.6-4.2s2.8-1.1,5.6-1.1l2.4-.1h2.5A18.1,18.1,0,0,1,279.8,432.4Z" transform="translate(-133.6 -404)"/></svg>