<?xml version="1.0" standalone="no"?>
<!DOCTYPE svg PUBLIC "-//W3C//DTD SVG 20010904//EN"
 "http://www.w3.org/TR/2001/REC-SVG-20010904/DTD/svg10.dtd">
<svg version="1.0" xmlns="http://www.w3.org/2000/svg"
 width="276.000000pt" height="276.000000pt" viewBox="0 0 276.000000 276.000000"
 preserveAspectRatio="xMidYMid meet">
<metadata>
Created by potrace 1.14, written by Peter Selinger 2001-2017
</metadata>
<g transform="translate(0.000000,276.000000) scale(0.100000,-0.100000)"
fill="#000000" stroke="none">
<path d="M145 2716 c-44 -20 -85 -76 -85 -116 0 -23 26 -78 44 -95 83 -75 218
-17 211 91 -4 57 -13 79 -46 103 -38 28 -86 35 -124 17z"/>
<path d="M745 2714 c-39 -22 -53 -37 -65 -69 -23 -60 2 -130 57 -159 34 -17
99 -15 130 4 32 20 61 80 57 118 -7 88 -106 146 -179 106z"/>
<path d="M1363 2720 c-51 -21 -86 -72 -87 -125 0 -18 25 -85 32 -85 4 0 19
-10 33 -23 l26 -22 0 -178 1 -177 -26 -13 c-32 -15 -70 -79 -67 -111 5 -41 34
-91 64 -109 l28 -16 1 -181 c0 -175 0 -181 -21 -191 -78 -41 -94 -133 -35
-200 13 -14 30 -28 39 -31 13 -5 16 -31 16 -187 1 -175 0 -182 -20 -193 -31
-16 -46 -33 -61 -70 -8 -18 -15 -35 -16 -38 -1 -3 5 -23 14 -45 17 -41 40 -67
67 -77 13 -5 15 -33 16 -187 l1 -181 -29 -17 c-28 -17 -62 -73 -62 -103 0 -48
6 -63 37 -93 38 -38 98 -56 122 -36 8 6 14 8 14 4 0 -11 54 35 67 58 17 31 16
94 -3 126 -9 15 -29 34 -46 44 -22 13 -29 23 -25 37 3 11 1 23 -4 26 -5 3 -5
12 0 22 6 11 6 24 0 35 -6 9 -6 17 -2 17 4 0 8 13 8 29 0 16 -3 27 -7 24 -5
-2 -4 7 1 20 6 16 6 28 -1 35 -7 7 -6 17 1 31 8 15 8 21 1 21 -8 0 -8 6 0 20
7 13 7 20 1 20 -16 0 9 49 28 55 28 9 61 69 61 110 0 41 -35 105 -57 105 -15
0 -36 37 -28 50 3 6 2 10 -4 10 -7 0 -7 8 -1 24 5 15 5 27 -2 34 -7 7 -6 17 1
31 8 15 8 21 1 21 -8 0 -8 6 0 20 8 14 8 20 0 20 -8 0 -8 6 0 20 8 14 8 20 0
20 -7 0 -7 6 0 21 8 15 8 24 0 34 -8 9 -8 15 0 20 7 4 7 12 0 25 -8 15 -3 23
28 46 52 39 58 50 61 101 3 59 -30 112 -77 128 -17 5 -20 10 -13 19 6 7 6 18
1 26 -4 7 -4 24 0 36 6 14 5 26 0 29 -6 4 -7 13 -1 23 6 11 6 24 0 35 -6 9 -6
17 -2 17 4 0 8 13 8 29 0 16 -3 27 -7 24 -5 -2 -4 7 1 20 6 16 6 28 -1 35 -6
6 -7 16 0 28 5 11 7 25 5 31 -3 7 6 18 19 24 61 28 86 122 49 182 -11 18 -31
39 -45 46 -21 12 -43 61 -27 61 3 0 6 11 6 25 0 14 -3 25 -7 25 -4 0 -3 11 2
24 5 15 5 27 -2 34 -7 7 -6 17 1 31 8 15 8 21 1 21 -8 0 -8 6 0 20 8 14 8 20
0 20 -8 0 -8 6 0 20 8 14 8 20 0 20 -7 0 -8 6 -2 18 5 9 8 27 6 40 -3 14 1 22
11 22 8 0 15 5 15 10 0 6 6 10 14 10 18 0 46 60 46 100 0 47 -26 87 -70 110
-42 22 -63 24 -97 10z"/>
<path d="M1975 2720 c-4 -6 -11 -8 -16 -5 -5 4 -9 1 -9 -4 0 -6 -5 -11 -11
-11 -24 0 -56 -58 -54 -95 1 -11 2 -30 3 -42 1 -12 18 -38 38 -57 33 -32 40
-35 91 -32 45 3 60 9 81 32 30 32 34 44 35 100 1 29 -6 50 -24 72 -32 40 -119
67 -134 42z"/>
<path d="M2558 2709 c-44 -23 -75 -78 -70 -127 5 -48 66 -107 115 -110 58 -4
102 22 127 75 18 39 19 50 9 81 -14 45 -33 67 -72 87 -39 20 -64 18 -109 -6z"/>
<path d="M141 2104 c-65 -33 -95 -108 -66 -168 66 -139 267 -71 240 82 -6 30
-53 85 -76 88 -5 1 -10 3 -11 4 -9 8 -67 4 -87 -6z"/>
<path d="M731 2092 c-48 -31 -53 -41 -57 -104 -2 -40 3 -52 30 -83 49 -56 122
-61 179 -11 55 48 56 121 3 183 -17 20 -31 26 -93 37 -12 3 -39 -7 -62 -22z"/>
<path d="M1975 2108 c-71 -19 -96 -68 -86 -166 1 -16 55 -72 70 -72 14 0 13 8
15 -195 l1 -170 -28 -17 c-15 -10 -36 -32 -47 -50 -34 -56 -11 -144 46 -170
13 -6 25 -18 25 -27 4 -55 3 -344 -1 -350 -3 -3 -17 -14 -32 -24 -34 -21 -48
-47 -52 -95 -5 -46 14 -83 57 -116 l32 -25 0 -177 c-1 -146 -3 -178 -15 -182
-8 -3 -29 -20 -46 -39 -27 -30 -31 -40 -29 -85 1 -29 7 -54 14 -56 6 -2 11
-10 11 -17 0 -18 83 -57 111 -51 50 9 79 30 100 73 15 30 19 54 15 75 -7 38
-51 98 -72 98 -17 0 -16 -13 -18 194 l-1 169 33 25 c53 41 71 90 52 147 -10
31 -60 88 -60 69 0 -5 -6 0 -12 11 -12 20 -19 349 -8 363 3 4 14 12 24 18 37
20 61 63 60 109 0 49 -20 95 -41 95 -7 0 -13 4 -13 9 0 5 -8 12 -17 15 -16 5
-18 23 -17 187 l0 182 33 16 c17 9 29 20 25 24 -4 4 -3 7 3 7 17 0 31 51 27
95 -3 29 -12 48 -36 71 -18 17 -36 31 -40 32 -5 1 -9 2 -10 3 -16 5 -49 4 -73
-3z"/>
<path d="M2562 2100 c-43 -20 -65 -51 -70 -98 -8 -79 40 -136 118 -138 56 -2
92 18 117 65 20 38 22 60 9 101 -9 27 -60 79 -79 81 -7 0 -22 2 -35 3 -12 2
-39 -5 -60 -14z"/>
<path d="M152 1496 c-63 -18 -105 -100 -81 -159 37 -95 146 -118 215 -46 25
26 29 38 29 84 -1 46 -5 59 -29 84 -34 36 -89 51 -134 37z"/>
<path d="M775 1500 c-70 -15 -104 -61 -101 -136 2 -42 6 -51 45 -84 l43 -37 1
-177 2 -177 -31 -15 c-78 -37 -81 -181 -4 -215 16 -7 26 -17 24 -21 -3 -4 -2
-8 3 -8 4 0 8 -79 7 -176 -1 -174 -1 -176 -25 -187 -34 -17 -69 -75 -69 -113
0 -67 77 -142 136 -132 57 10 109 59 118 112 7 42 -26 111 -61 130 l-30 15 1
182 c1 172 2 182 21 189 22 8 58 48 64 71 16 56 -8 121 -57 153 l-29 19 2 171
c1 94 3 176 3 182 1 6 13 16 27 22 54 25 77 113 45 171 -10 20 -70 67 -70 56
0 -3 -8 -2 -17 3 -10 5 -31 6 -48 2z"/>
<path d="M2584 1499 c-28 -8 -83 -52 -85 -68 0 -3 -3 -15 -5 -26 -14 -56 10
-112 61 -141 19 -10 20 -24 22 -198 1 -151 -1 -186 -12 -186 -7 0 -27 -17 -44
-37 -23 -28 -31 -48 -31 -78 0 -23 5 -46 12 -53 7 -7 9 -12 4 -12 -10 0 13
-23 47 -44 l27 -18 0 -178 0 -178 -25 -16 c-71 -46 -85 -147 -30 -202 24 -25
73 -43 105 -39 32 4 99 47 101 66 2 14 4 22 13 47 10 31 -25 103 -63 125 l-29
17 0 180 c-1 162 1 182 16 187 29 11 59 46 71 85 18 54 -9 113 -64 144 -19 10
-20 24 -22 193 -2 160 0 183 14 188 44 17 90 97 77 135 -4 13 -9 30 -10 38 -3
15 -66 72 -72 65 -2 -2 -14 0 -26 4 -11 4 -35 4 -52 0z"/>
<path d="M143 883 c-56 -29 -90 -90 -78 -142 7 -33 67 -105 78 -94 9 9 9 12
11 -186 2 -162 0 -175 -18 -193 -11 -10 -23 -18 -28 -18 -4 0 -17 -19 -29 -41
-56 -112 62 -227 173 -168 23 12 58 46 59 58 0 3 2 24 5 46 6 47 -21 99 -61
117 -14 6 -25 16 -26 22 0 6 -1 85 -2 176 l-2 165 29 27 c16 16 32 28 36 28 8
0 19 29 27 68 6 33 -13 85 -40 110 -33 31 -99 43 -134 25z"/>
</g>
</svg>
